<?xml version="1.0" standalone="no"?>
<!DOCTYPE svg PUBLIC "-//W3C//DTD SVG 20010904//EN"
 "http://www.w3.org/TR/2001/REC-SVG-20010904/DTD/svg10.dtd">
<svg version="1.0" xmlns="http://www.w3.org/2000/svg"
 width="728.000000pt" height="90.000000pt" viewBox="0 0 728.000000 90.000000"
 preserveAspectRatio="xMidYMid meet">
<metadata>
Created by potrace 1.16, written by Peter Selinger 2001-2019
</metadata>
<g transform="translate(0.000000,90.000000) scale(0.100000,-0.100000)"
fill="#000000" stroke="none">
<path d="M760 500 l0 -240 25 0 25 0 0 110 c0 151 21 190 104 190 25 0 40 -7
55 -26 19 -24 21 -40 21 -150 l0 -124 25 0 25 0 0 130 c0 151 -10 183 -67 207
-46 19 -93 10 -133 -23 l-30 -26 0 96 c0 96 0 96 -25 96 l-25 0 0 -240z"/>
<path d="M440 719 c-66 -20 -104 -79 -93 -145 10 -55 51 -84 145 -103 75 -16
108 -42 108 -86 0 -18 -8 -43 -18 -55 -30 -37 -131 -39 -214 -5 -14 6 -18 2
-18 -18 0 -34 51 -52 145 -51 120 1 172 48 162 148 -6 68 -43 99 -145 122 -41
9 -83 25 -93 35 -24 24 -24 60 0 90 17 21 28 24 88 24 37 0 80 -3 96 -8 24 -7
27 -5 27 17 0 13 -6 26 -13 29 -31 12 -145 15 -177 6z"/>
<path d="M170 472 c0 -275 -3 -292 -61 -292 -25 0 -29 -4 -29 -26 0 -25 2 -26
40 -20 104 16 110 35 110 340 l0 246 -30 0 -30 0 0 -248z"/>
<path d="M1222 591 c-53 -25 -82 -81 -82 -161 0 -83 28 -136 86 -161 124 -55
240 45 220 190 -16 120 -119 180 -224 132z m119 -41 c29 -16 49 -64 49 -120 0
-87 -34 -130 -103 -130 -27 0 -41 7 -61 30 -68 81 -29 230 61 230 19 0 43 -5
54 -10z"/>
<path d="M1635 598 c-69 -25 -105 -83 -105 -170 0 -133 106 -204 244 -164 45
13 56 21 56 37 0 18 -4 20 -22 14 -55 -17 -135 -17 -167 0 -29 15 -61 64 -61
95 0 6 47 10 130 10 l130 0 0 38 c0 45 -26 99 -60 124 -31 22 -105 31 -145 16z
m129 -69 c46 -54 39 -59 -78 -59 l-105 0 11 30 c13 38 50 59 105 60 34 0 46
-5 67 -31z"/>
<path d="M1993 600 c-40 -13 -73 -54 -73 -91 0 -44 37 -78 105 -95 80 -21 95
-30 95 -58 0 -43 -32 -59 -102 -53 -35 3 -71 8 -80 12 -14 6 -18 2 -18 -18 0
-28 8 -32 81 -42 57 -8 119 8 148 39 17 18 22 33 19 66 -4 53 -29 74 -113 96
-68 18 -85 29 -85 55 0 40 29 52 112 46 70 -5 78 -3 78 13 0 10 -7 21 -16 24
-31 12 -120 15 -151 6z"/>
</g>
</svg>
